<?xml version="1.0" encoding="UTF-8" standalone="no"?>
<svg
   xmlns:dc="http://purl.org/dc/elements/1.1/"
   xmlns:cc="http://creativecommons.org/ns#"
   xmlns:rdf="http://www.w3.org/1999/02/22-rdf-syntax-ns#"
   xmlns:svg="http://www.w3.org/2000/svg"
   xmlns="http://www.w3.org/2000/svg"
   viewBox="0 0 289.46667 120.44"
   height="120.44"
   width="289.46667"
   xml:space="preserve"
   id="svg2"
   version="1.1"><metadata
     id="metadata8"><rdf:RDF><cc:Work
         rdf:about=""><dc:format>image/svg+xml</dc:format><dc:type
           rdf:resource="http://purl.org/dc/dcmitype/StillImage" /></cc:Work></rdf:RDF></metadata><defs
     id="defs6" /><g
     transform="matrix(1.3333333,0,0,-1.3333333,0,120.44)"
     id="g10"><g
       transform="scale(0.1)"
       id="g12"><path
         id="path14"
         style="fill:#d60f67;fill-opacity:1;fill-rule:nonzero;stroke:none"
         d="M 41.8945,111.887 35.7773,89.3359 h 26.375 l -5.7382,22.5511 c -4.2032,16.246 -5.5391,24.461 -6.875,32.871 H 49.1563 C 47.8164,136.16 46.2891,127.75 41.8945,111.887 Z M 4.4375,38.5039 c -3.05859,0 -5.160156,2.8711 -4.203125,5.7344 L 36.1602,165.016 c 0.9531,3.437 4.2031,5.734 7.6406,5.734 h 12.6133 c 3.4414,0 6.6914,-2.297 7.4531,-5.734 L 98.4609,44.2383 C 99.2227,41.375 97.1211,38.5039 94.0625,38.5039 H 81.0664 c -3.4375,0 -6.4961,2.4883 -7.4531,5.7344 l -6.875,26.9453 H 30.8125 L 23.5469,44.2383 C 22.5938,40.7969 19.5352,38.5039 16.0977,38.5039 H 4.4375" /><path
         id="path16"
         style="fill:#d60f67;fill-opacity:1;fill-rule:nonzero;stroke:none"
         d="m 133.891,38.5039 c -3.25,0 -5.926,2.6719 -5.926,5.9258 V 150.875 h -24.078 c -3.25,0 -5.9261,2.676 -5.9261,5.922 v 8.027 c 0,3.246 2.6761,5.926 5.9261,5.926 h 70.898 c 3.246,0 5.926,-2.68 5.926,-5.926 v -8.027 c 0,-3.246 -2.68,-5.922 -5.926,-5.922 H 150.707 V 44.4297 c 0,-3.2539 -2.68,-5.9258 -5.926,-5.9258 h -10.89" /><path
         id="path18"
         style="fill:#d60f67;fill-opacity:1;fill-rule:nonzero;stroke:none"
         d="m 206.875,38.5039 c -3.25,0 -5.926,2.6719 -5.926,5.9258 V 164.824 c 0,3.246 2.676,5.926 5.926,5.926 h 20.063 c 3.441,0 6.691,-2.297 7.644,-5.734 l 16.246,-55.805 c 3.438,-11.6563 4.777,-21.9727 5.352,-30.0001 h 0.379 c 0.765,7.8321 1.722,18.3438 5.16,30.0001 l 15.863,55.805 c 0.953,3.437 4.203,5.734 7.641,5.734 h 21.215 c 3.246,0 5.925,-2.68 5.925,-5.926 V 44.4297 c 0,-3.2539 -2.679,-5.9258 -5.925,-5.9258 h -10.704 c -3.246,0 -5.921,2.6719 -5.921,5.9258 v 61.9183 c 0,21.976 0.953,38.027 1.527,45.293 h -0.383 c -1.144,-7.457 -5.156,-26.754 -9.934,-42.047 L 267.645,67.5547 C 266.496,63.9258 263.438,61.8164 260,61.8164 h -9.363 c -3.442,0 -6.688,2.293 -7.84,5.5469 l -12.992,40.1287 c -4.586,14.336 -8.407,36.883 -9.555,44.149 h -0.383 c 0.574,-7.075 1.531,-26.567 1.531,-45.676 V 44.4297 c 0,-3.2539 -2.675,-5.9258 -5.925,-5.9258 h -8.598" /><path
         id="path20"
         style="fill:#d60f67;fill-opacity:1;fill-rule:nonzero;stroke:none"
         d="m 419.531,143.422 c 0,-6.692 3.633,-12.039 7.641,-17.012 L 431,121.633 c 10.316,6.691 13.184,11.469 13.184,20.066 0,9.742 -3.821,14.906 -11.657,14.906 -8.601,0 -12.996,-4.964 -12.996,-13.183 z M 431,53.2188 c 8.598,0 15.668,3.0585 21.211,8.5976 L 421.059,100.23 c -9.555,-5.3472 -12.996,-12.9917 -12.996,-24.2652 0,-14.1484 5.925,-22.746 22.937,-22.746 z m -1.531,-17.1954 c -30.196,0 -45.485,15.0977 -45.485,38.793 0,18.5352 8.985,29.8126 27.52,38.0316 -8.602,10.129 -13.566,18.914 -13.566,30 0,18.343 12.804,30.382 34.207,30.382 20.066,0 33.632,-11.46 33.632,-30.957 0,-14.906 -9.937,-23.886 -25.605,-31.914 l 23.883,-28.8551 c 2.105,5.9219 3.824,12.4219 5.355,19.6841 0.762,3.054 3.82,5.16 7.07,4.585 l 6.497,-1.144 c 2.867,-0.574 5.351,-3.441 4.586,-6.879 -2.672,-13 -5.735,-23.3125 -10.317,-32.2969 l 18.535,-22.3593 c 1.528,-1.918 0.192,-4.5899 -2.101,-4.5899 h -16.434 c -3.633,0 -7.457,1.7227 -9.75,4.5899 l -3.633,4.5898 C 455.078,40.0313 443.801,36.0234 429.469,36.0234" /><path
         id="path22"
         style="fill:#d60f67;fill-opacity:1;fill-rule:nonzero;stroke:none"
         d="m 597.41,111.887 -6.117,-22.5511 h 26.375 l -5.738,22.5511 c -4.2,16.246 -5.539,24.461 -6.875,32.871 h -0.387 c -1.336,-8.598 -2.863,-17.008 -7.258,-32.871 z M 559.953,38.5039 c -3.058,0 -5.164,2.8711 -4.207,5.7344 l 35.926,120.7777 c 0.961,3.437 4.211,5.734 7.644,5.734 h 12.614 c 3.441,0 6.691,-2.297 7.457,-5.734 l 34.59,-120.7777 c 0.761,-2.8633 -1.344,-5.7344 -4.399,-5.7344 h -12.996 c -3.437,0 -6.492,2.4883 -7.453,5.7344 l -6.875,26.9453 h -35.93 l -7.261,-26.9453 c -0.958,-3.4414 -4.012,-5.7344 -7.454,-5.7344 h -11.656" /><path
         id="path24"
         style="fill:#d60f67;fill-opacity:1;fill-rule:nonzero;stroke:none"
         d="m 684.93,149.73 c -7.645,0 -13.762,6.11 -13.762,13.95 0,7.836 6.117,14.14 13.953,14.14 7.836,0 13.953,-6.121 13.953,-14.14 0,-7.84 -6.117,-13.95 -14.144,-13.95 z M 680.344,38.5039 c -3.25,0 -5.922,2.6719 -5.922,5.9258 v 74.3363 l -6.883,1.152 c -3.246,0.762 -5.73,3.625 -5.73,7.062 v 2.297 c 0,3.25 2.675,5.926 5.921,5.926 h 22.36 c 3.25,0 5.922,-2.676 5.922,-5.926 V 44.4297 c 0,-3.2539 -2.672,-5.9258 -5.922,-5.9258 h -9.746" /><path
         id="path26"
         style="fill:#d60f67;fill-opacity:1;fill-rule:nonzero;stroke:none"
         d="m 726.449,38.5039 c -3.25,0 -5.926,2.6719 -5.926,5.9258 v 84.8473 c 0,3.25 2.676,5.926 5.926,5.926 h 5.539 c 3.438,0 6.5,-2.484 7.075,-5.734 l 1.335,-6.492 c 6.497,8.406 15.094,13.949 25.227,13.949 0.953,0 2.098,0 3.055,-0.196 1.34,-0.187 2.293,-1.148 2.293,-3.058 l -2.481,-15.668 c -0.191,-1.91 -2.105,-3.246 -4.203,-2.867 -1.148,0.191 -2.676,0.383 -4.211,0.383 -7.449,0 -12.23,-2.293 -17.769,-7.075 V 44.4297 c 0,-3.2539 -2.676,-5.9258 -5.926,-5.9258 h -9.934" /><path
         id="path28"
         style="fill:#d60f67;fill-opacity:1;fill-rule:nonzero;stroke:none"
         d="m 825.652,53.9844 c 12.231,0 16.438,5.1601 16.438,33.0586 0,27.332 -3.633,32.875 -15.102,32.875 -7.832,0 -12.992,-3.633 -18.152,-8.602 V 61.25 c 4.203,-4.0156 10.129,-7.2656 16.816,-7.2656 z M 792.977,0.855469 c -3.25,0 -5.926,2.675781 -5.926,5.929691 V 129.277 c 0,3.25 2.676,5.926 5.926,5.926 h 5.539 c 3.437,0 6.5,-2.484 7.265,-5.734 l 1.145,-4.395 c 7.262,7.836 15.859,12.614 25.801,12.614 19.488,0 32.679,-10.708 32.679,-49.4966 0,-38.4141 -10.511,-52.168 -32.679,-52.168 -10.321,0 -18.539,4.7735 -23.891,9.7461 V 6.78516 c 0,-3.25391 -2.672,-5.929691 -5.926,-5.929691 h -9.933" /><path
         id="path30"
         style="fill:#d60f67;fill-opacity:1;fill-rule:nonzero;stroke:none"
         d="m 922.922,52.4531 c 12.613,0 17.391,7.2657 17.391,34.5899 0,27.715 -4.965,34.211 -17.583,34.211 -12.609,0 -17.386,-6.691 -17.386,-34.3985 0,-27.3321 4.969,-34.4024 17.578,-34.4024 z m 0,-16.4297 c -25.031,0 -40.699,14.7149 -40.699,51.0196 0,36.5 15.476,50.645 40.507,50.645 25.036,0 40.895,-14.528 40.895,-50.8325 0,-36.3125 -15.668,-50.8321 -40.703,-50.8321" /><path
         id="path32"
         style="fill:#d60f67;fill-opacity:1;fill-rule:nonzero;stroke:none"
         d="m 989.758,38.5039 c -3.25,0 -5.926,2.6719 -5.926,5.9258 v 84.8473 c 0,3.25 2.676,5.926 5.926,5.926 h 5.543 c 3.437,0 6.499,-2.484 7.069,-5.734 l 1.34,-6.492 c 6.49,8.406 15.09,13.949 25.22,13.949 0.96,0 2.1,0 3.06,-0.196 1.34,-0.187 2.29,-1.148 2.29,-3.058 l -2.48,-15.668 c -0.19,-1.91 -2.1,-3.246 -4.21,-2.867 -1.14,0.191 -2.67,0.383 -4.2,0.383 -7.45,0 -12.23,-2.293 -17.77,-7.075 V 44.4297 c 0,-3.2539 -2.68,-5.9258 -5.929,-5.9258 h -9.933" /><path
         id="path34"
         style="fill:#d60f67;fill-opacity:1;fill-rule:nonzero;stroke:none"
         d="m 1052.38,118.387 c -3.24,0 -5.92,2.676 -5.92,5.922 v 4.968 c 0,3.25 2.68,5.926 5.92,5.926 h 4.59 v 18.348 c 0,3.437 2.49,6.496 5.74,7.07 l 10.13,1.91 c 2.86,0.571 5.73,-1.722 5.73,-4.777 v -22.551 h 12.99 c 3.25,0 5.93,-2.676 5.93,-5.926 v -4.968 c 0,-3.246 -2.68,-5.922 -5.93,-5.922 h -12.99 V 62.3945 c 0,-7.2617 2.48,-9.5586 7.45,-9.5586 1.91,0 3.63,0.3829 5.16,0.7618 2.29,0.7695 4.97,-0.7618 5.54,-3.2422 l 1.15,-4.9688 c 0.76,-3.25 -1.15,-6.6875 -4.4,-7.6484 -3.06,-0.9492 -6.69,-1.7149 -11.27,-1.7149 -14.91,0 -25.23,5.5352 -25.23,22.3555 v 60.0081 h -4.59" /><path
         id="path36"
         style="fill:#d60f67;fill-opacity:1;fill-rule:nonzero;stroke:none"
         d="m 1143.79,36.0234 c -11.27,0 -21.4,3.0547 -28.66,6.6875 -3.06,1.5274 -4.2,5.1563 -2.87,8.0274 l 2.68,5.539 c 1.34,3.0547 4.96,4.2071 7.83,2.6758 5.93,-3.0547 12.23,-4.9687 19.11,-4.9687 11.08,0 15.1,3.8203 15.1,11.4687 0,8.7852 -4.59,10.5117 -18.54,14.3321 -13.37,3.6289 -23.69,11.4648 -23.69,30.0038 0,16.621 10.51,27.899 31.52,27.899 9.75,0 16.64,-1.34 22.94,-3.633 3.06,-1.336 4.59,-4.778 3.44,-7.836 l -2.1,-5.539 c -1.15,-3.059 -4.59,-4.586 -7.45,-3.442 -4.98,1.91 -9.56,2.68 -15.1,2.68 -8.22,0 -12.42,-3.059 -12.42,-9.746 0,-7.649 3.44,-9.363 15.48,-12.6173 14.9,-4.0117 27.51,-9.9336 27.51,-31.1484 0,-20.0665 -11.27,-30.3829 -34.78,-30.3829" /><path
         id="path38"
         style="fill:#d60f67;fill-opacity:1;fill-rule:nonzero;stroke:none"
         d="m 1297.03,36.0234 c -36.12,0 -52.36,22.1641 -52.36,68.2186 0,47.016 16.81,68.988 51.98,68.988 11.27,0 20.83,-2.48 28.09,-6.878 2.68,-1.715 3.63,-5.348 2.1,-8.024 l -4.21,-7.265 c -1.52,-2.864 -5.15,-3.821 -7.83,-2.098 -4.97,3.055 -10.7,4.773 -17.39,4.773 -21.98,0 -27.33,-12.609 -27.33,-48.156 0,-37.0742 6.5,-50.0664 27.71,-50.0664 7.65,0 13.57,2.4805 18.73,5.9219 2.68,1.7227 6.3,0.957 8.02,-1.7187 l 4.21,-6.6875 c 1.72,-2.8711 0.77,-6.5 -1.91,-8.2188 -7.64,-5.1641 -17.2,-8.7891 -29.81,-8.7891" /><path
         id="path40"
         style="fill:#d60f67;fill-opacity:1;fill-rule:nonzero;stroke:none"
         d="m 1383.73,52.4531 c 12.62,0 17.39,7.2657 17.39,34.5899 0,27.715 -4.96,34.211 -17.58,34.211 -12.61,0 -17.39,-6.691 -17.39,-34.3985 0,-27.3321 4.97,-34.4024 17.58,-34.4024 z m 0,-16.4297 c -25.03,0 -40.7,14.7149 -40.7,51.0196 0,36.5 15.48,50.645 40.51,50.645 25.04,0 40.9,-14.528 40.9,-50.8325 0,-36.3125 -15.67,-50.8321 -40.71,-50.8321" /><path
         id="path42"
         style="fill:#d60f67;fill-opacity:1;fill-rule:nonzero;stroke:none"
         d="m 1450.56,38.5039 c -3.25,0 -5.92,2.6719 -5.92,5.9258 v 84.8473 c 0,3.25 2.67,5.926 5.92,5.926 h 5.54 c 3.44,0 6.5,-2.484 7.27,-5.734 l 0.95,-4.778 c 7.84,7.645 16.63,12.997 28.47,12.997 15.29,0 24.28,-7.071 24.28,-25.223 V 44.4297 c 0,-3.2539 -2.68,-5.9258 -5.93,-5.9258 h -9.93 c -3.25,0 -5.93,2.6719 -5.93,5.9258 v 62.4923 c 0,10.129 -3.25,12.609 -10.32,12.609 -6.88,0 -13,-3.629 -18.54,-8.593 V 44.4297 c 0,-3.2539 -2.67,-5.9258 -5.92,-5.9258 h -9.94" /><path
         id="path44"
         style="fill:#d60f67;fill-opacity:1;fill-rule:nonzero;stroke:none"
         d="m 1566.75,36.0234 c -11.27,0 -21.4,3.0547 -28.66,6.6875 -3.06,1.5274 -4.2,5.1563 -2.87,8.0274 l 2.68,5.539 c 1.33,3.0547 4.96,4.2071 7.83,2.6758 5.93,-3.0547 12.23,-4.9687 19.11,-4.9687 11.08,0 15.1,3.8203 15.1,11.4687 0,8.7852 -4.59,10.5117 -18.54,14.3321 -13.37,3.6289 -23.69,11.4648 -23.69,30.0038 0,16.621 10.51,27.899 31.52,27.899 9.75,0 16.63,-1.34 22.94,-3.633 3.06,-1.336 4.59,-4.778 3.44,-7.836 l -2.1,-5.539 c -1.15,-3.059 -4.59,-4.586 -7.45,-3.442 -4.98,1.91 -9.56,2.68 -15.1,2.68 -8.22,0 -12.42,-3.059 -12.42,-9.746 0,-7.649 3.44,-9.363 15.48,-12.6173 14.9,-4.0117 27.51,-9.9336 27.51,-31.1484 0,-20.0665 -11.27,-30.3829 -34.78,-30.3829" /><path
         id="path46"
         style="fill:#d60f67;fill-opacity:1;fill-rule:nonzero;stroke:none"
         d="m 1645.31,36.0234 c -14.71,0 -25.79,8.4063 -25.79,26.3711 v 66.8825 c 0,3.25 2.67,5.926 5.92,5.926 h 9.94 c 3.25,0 5.92,-2.676 5.92,-5.926 V 67.5547 c 0,-10.3203 3.82,-13.3789 10.9,-13.3789 6.68,0 12.8,3.8203 18.53,8.789 v 66.3122 c 0,3.25 2.68,5.926 5.93,5.926 h 9.74 c 3.25,0 5.93,-2.676 5.93,-5.926 V 44.4297 c 0,-3.2539 -2.68,-5.9258 -5.93,-5.9258 h -5.54 c -3.44,0 -6.5,2.4883 -7.07,5.7344 l -1.15,4.9726 C 1665,41.5586 1657.55,36.0234 1645.31,36.0234" /><path
         id="path48"
         style="fill:#d60f67;fill-opacity:1;fill-rule:nonzero;stroke:none"
         d="m 1737.53,36.4063 c -16.44,0 -20.64,8.2148 -20.64,27.1367 v 108.156 c 0,3.254 2.67,5.93 5.92,5.93 h 9.94 c 3.25,0 5.92,-2.676 5.92,-5.93 V 60.8672 c 0,-4.207 1.34,-6.3086 4.01,-7.0742 3.83,-1.1446 6.31,-2.2891 6.88,-6.1094 l 0.58,-4.0195 c 0.38,-3.0547 -1.34,-5.7305 -4.59,-6.3047 -2.48,-0.5703 -5.35,-0.9531 -8.02,-0.9531" /><path
         id="path50"
         style="fill:#d60f67;fill-opacity:1;fill-rule:nonzero;stroke:none"
         d="m 1763.22,118.387 c -3.25,0 -5.93,2.676 -5.93,5.922 v 4.968 c 0,3.25 2.68,5.926 5.93,5.926 h 4.58 v 18.348 c 0,3.437 2.49,6.496 5.74,7.07 l 10.13,1.91 c 2.86,0.571 5.73,-1.722 5.73,-4.777 v -22.551 h 12.99 c 3.25,0 5.93,-2.676 5.93,-5.926 v -4.968 c 0,-3.246 -2.68,-5.922 -5.93,-5.922 H 1789.4 V 62.3945 c 0,-7.2617 2.48,-9.5586 7.45,-9.5586 1.91,0 3.63,0.3829 5.16,0.7618 2.29,0.7695 4.97,-0.7618 5.54,-3.2422 l 1.15,-4.9688 c 0.76,-3.25 -1.15,-6.6875 -4.4,-7.6484 -3.05,-0.9492 -6.68,-1.7149 -11.27,-1.7149 -14.91,0 -25.23,5.5352 -25.23,22.3555 v 60.0081 h -4.58" /><path
         id="path52"
         style="fill:#d60f67;fill-opacity:1;fill-rule:nonzero;stroke:none"
         d="m 1855.18,51.8867 c 7.26,0 12.61,4.2031 16.44,8.0196 v 24.4609 h -3.45 c -20.82,0 -24.46,-5.3477 -24.46,-17.5742 0,-11.0899 3.25,-14.9063 11.47,-14.9063 z m -4.78,-15.8633 c -19.3,0 -28.85,11.0821 -28.85,30.5782 0,22.164 12.99,31.914 43.18,31.914 h 6.89 v 5.5394 c 0,10.125 -1.34,15.668 -12.23,15.668 -7.46,0 -14.91,-2.672 -21.6,-5.926 -2.87,-1.527 -6.5,-0.383 -8.03,2.488 l -2.48,4.969 c -1.53,3.055 -0.38,6.687 2.48,8.215 8.99,4.969 18.92,8.219 31.92,8.219 21.59,0 31.72,-8.411 31.72,-30.196 V 44.4297 c 0,-3.2539 -2.67,-5.9258 -5.92,-5.9258 h -5.16 c -3.44,0 -6.69,2.293 -7.65,5.7344 l -0.95,2.6758 c -5.35,-5.7383 -12.8,-10.8907 -23.32,-10.8907" /><path
         id="path54"
         style="fill:#d60f67;fill-opacity:1;fill-rule:nonzero;stroke:none"
         d="m 1923.3,38.5039 c -3.25,0 -5.93,2.6719 -5.93,5.9258 v 84.8473 c 0,3.25 2.68,5.926 5.93,5.926 h 5.54 c 3.44,0 6.5,-2.484 7.26,-5.734 l 0.96,-4.778 c 7.83,7.645 16.62,12.997 28.47,12.997 15.29,0 24.27,-7.071 24.27,-25.223 V 44.4297 c 0,-3.2539 -2.67,-5.9258 -5.92,-5.9258 h -9.94 c -3.25,0 -5.93,2.6719 -5.93,5.9258 v 62.4923 c 0,10.129 -3.24,12.609 -10.32,12.609 -6.87,0 -12.99,-3.629 -18.53,-8.593 V 44.4297 c 0,-3.2539 -2.68,-5.9258 -5.93,-5.9258 h -9.93" /><path
         id="path56"
         style="fill:#d60f67;fill-opacity:1;fill-rule:nonzero;stroke:none"
         d="m 2049.67,36.0234 c -26.56,0 -39.94,16.2422 -39.94,51.0196 0,36.312 14.15,50.645 39.37,50.645 9.75,0 17.2,-2.106 24.08,-7.262 2.67,-1.91 3.25,-5.735 1.15,-8.215 l -3.83,-4.973 c -2.1,-2.675 -5.73,-3.058 -8.41,-1.144 -3.43,2.484 -7.07,3.824 -12.03,3.824 -12.43,0 -17.01,-5.16 -17.01,-32.4922 0,-27.1367 4.77,-33.6328 17.96,-33.6328 5.36,0 8.98,1.7226 12.23,4.2031 2.67,1.9102 6.5,1.3359 8.41,-1.1445 l 3.63,-4.9649 c 1.91,-2.6758 1.34,-6.3125 -1.15,-8.2226 -6.31,-4.7774 -14.14,-7.6407 -24.46,-7.6407" /><path
         id="path58"
         style="fill:#d60f67;fill-opacity:1;fill-rule:nonzero;stroke:none"
         d="m 2106.47,0.09375 c -3.24,-0.570313 -6.5,1.52734 -7.45,4.58594 l -1.53,6.30861 c -0.76,3.0547 1.15,6.4961 4.2,7.2617 12.04,3.0547 16.82,7.6445 21.41,20.2539 h -0.2 c -3.05,0 -5.73,2.1055 -6.68,4.9727 l -26.38,85.9924 c -0.76,2.867 1.15,5.734 4.21,5.734 h 11.27 c 3.44,0 6.5,-2.484 7.45,-5.734 l 12.43,-47.3909 c 2.67,-10.1289 4.2,-17.5859 5.16,-24.4648 h 0.19 c 1.15,6.4961 2.48,15.0976 5.16,24.6562 l 12.8,47.1995 c 0.96,3.441 4.02,5.734 7.45,5.734 h 10.71 c 3.06,0 4.97,-2.867 4.2,-5.734 L 2142.02,36.4063 C 2133.8,10.6016 2125.96,4.10938 2106.47,0.09375" /><path
         id="path60"
         style="fill:#d60f67;fill-opacity:1;fill-rule:nonzero;stroke:none"
         d="m 2165.84,674.445 c -5.11,10.844 -16.12,17.848 -28.05,17.848 h -78.43 c -8.84,0 -17.29,-3.813 -23.19,-10.461 l -90.9,-102.684 h -56.51 l 119.68,129.536 c 8.5,9.031 10.79,22.164 5.86,33.433 -4.89,11.403 -16.07,18.77 -28.46,18.77 h -121.91 c -8.82,0 -17.31,-3.86 -23.3,-10.606 l -138.24,-158.441 41.94,298.277 c 0.48,3.274 -0.52,6.653 -2.72,9.164 -2.18,2.516 -5.37,3.973 -8.69,3.973 h -110.11 c -5.75,0 -10.59,-4.242 -11.39,-9.934 l -44.73,-318.246 h 129.82 l 2.53,2.926 0.03,-0.02 146.52,167.934 c 4.72,5.316 11.41,8.363 18.34,8.363 h 121.91 c 9.75,0 18.54,-5.793 22.4,-14.785 3.88,-8.863 2.07,-19.179 -4.64,-26.308 L 1873.66,572.543 h 74.59 l 92.86,104.906 c 4.65,5.235 11.3,8.239 18.25,8.239 h 78.43 c 9.38,0 18.06,-5.516 22.07,-14.036 4.01,-8.664 2.63,-18.922 -3.51,-26.136 l -10.28,-12.055 c -0.12,-0.145 -0.25,-0.285 -0.38,-0.426 l -99.56,-106.586 86.17,-131.886 c 4.92,-7.458 5.31,-17.012 1,-24.95 -4.22,-7.859 -12.43,-12.742 -21.41,-12.742 h -78.44 c -8.35,0 -16.29,4.422 -20.7,11.535 l -70.84,114.918 h -79.06 l 110.13,-168.531 c 4.88,-7.449 5.28,-16.984 1.06,-24.859 -4.34,-7.911 -12.57,-12.825 -21.47,-12.825 h -121.93 c -8.47,0 -16.22,4.305 -20.71,11.5 l -122.13,199.164 1.08,7.762 h 8.47 0.16 l 123.62,-200.051 c 2.04,-3.273 5.61,-5.273 9.46,-5.273 h 122.01 c 4.08,0 7.8,2.223 9.77,5.812 1.92,3.602 1.77,7.957 -0.46,11.372 l -123.63,189.179 h 111.07 l 74.74,-121.254 c 2.02,-3.257 5.61,-5.285 9.44,-5.285 h 78.5 c 4.07,0 7.83,2.235 9.77,5.824 1.94,3.59 1.79,7.942 -0.48,11.368 l -18.11,27.726 -73.8,112.957 106.74,114.274 10.25,12.031 c 2.81,3.293 3.45,7.941 1.64,11.863 -1.85,3.918 -5.77,6.453 -10.1,6.453 h -78.48 c -3.18,0 -6.19,-1.375 -8.31,-3.761 l -96.89,-109.457 h -110.95 l 150.71,163.136 c 3.04,3.242 3.85,7.942 2.07,11.992 -1.75,4.071 -5.74,6.731 -10.2,6.731 h -121.98 c -3.17,0 -6.17,-1.356 -8.27,-3.723 L 1701.16,558.238 h -3.49 l 0.01,0.039 h -133.34 l -38.23,-271.972 c -0.48,-3.274 0.5,-6.653 2.72,-9.137 2.18,-2.539 5.34,-3.965 8.67,-3.965 h 110.12 c 5.74,0 10.6,4.235 11.42,9.922 l 27.31,194.363 117.96,-192.347 c 5.72,-9.168 15.56,-14.637 26.33,-14.637 h 121.93 c 11.32,0 21.76,6.226 27.28,16.281 5.37,10.035 4.86,22.153 -1.34,31.625 l -103.45,158.305 h 63.16 l 68.92,-111.781 c 5.61,-9.051 15.69,-14.672 26.31,-14.672 h 78.44 c 11.42,0 21.85,6.218 27.23,16.211 5.47,10.078 4.97,22.238 -1.3,31.715 l -83.34,127.539 96.04,102.808 c 0.22,0.231 0.42,0.449 0.59,0.66 l 10.27,12.039 c 7.81,9.172 9.56,22.2 4.46,33.211" /><path
         id="path62"
         style="fill:#d60f67;fill-opacity:1;fill-rule:nonzero;stroke:none"
         d="m 504.359,808.23 11.5,81.895 c 0.477,3.305 -0.492,6.652 -2.699,9.16 -2.207,2.52 -5.359,3.973 -8.68,3.973 H 23.0508 c -5.75,0 -10.6055,-4.207 -11.3867,-9.903 L 0.15625,811.441 c -0.511719,-3.296 0.507813,-6.632 2.69141,-9.16 2.20703,-2.511 5.3789,-3.945 8.69144,-3.945 H 181.242 L 149.863,575.074 h 138.789 l 31.375,223.262 h 172.946 c 5.738,0 10.59,4.211 11.386,9.894" /><path
         id="path64"
         style="fill:#d60f67;fill-opacity:1;fill-rule:nonzero;stroke:none"
         d="m 109.281,286.324 c -0.476,-3.312 0.516,-6.652 2.699,-9.172 2.211,-2.5 5.368,-3.949 8.696,-3.949 h 115.562 c 5.774,0 10.575,4.223 11.391,9.91 l 38.664,275.164 H 147.504 L 109.281,286.324" /><path
         id="path66"
         style="fill:#d60f67;fill-opacity:1;fill-rule:nonzero;stroke:none"
         d="m 900.926,685.629 c -16.258,33.605 -52.848,52.891 -100.285,52.891 -39.121,0 -81.848,-11.168 -140.266,-36.961 l 26.488,188.566 c 0.442,3.305 -0.519,6.637 -2.715,9.16 -2.21,2.52 -5.351,3.973 -8.699,3.973 H 565.316 c -5.726,0 -10.589,-4.231 -11.375,-9.903 L 509.207,575.074 h 133.387 l 4.765,33.922 c 31.086,9.551 60.911,14.57 86.641,14.57 16.668,0 27.477,-3.136 33.078,-9.578 6.61,-7.601 7.512,-21.91 6.227,-38.914 h 134.031 c 7.641,57.656 7.258,83.313 -6.41,110.555" /><path
         id="path68"
         style="fill:#d60f67;fill-opacity:1;fill-rule:nonzero;stroke:none"
         d="m 468.629,286.34 c -0.457,-3.301 0.496,-6.629 2.699,-9.172 2.203,-2.516 5.395,-3.965 8.707,-3.965 h 110.102 c 5.761,0 10.593,4.235 11.437,9.922 l 38.66,275.152 H 506.844 L 468.629,286.34" /><path
         id="path70"
         style="fill:#d60f67;fill-opacity:1;fill-rule:nonzero;stroke:none"
         d="m 770.766,552.203 c -0.172,-1.246 -37.325,-265.863 -37.325,-265.863 -0.48,-3.301 0.52,-6.629 2.704,-9.172 2.199,-2.516 5.359,-3.965 8.679,-3.965 h 110.125 c 5.739,0 10.621,4.235 11.41,9.922 l 38.668,275.152 H 771.555 c -0.258,-2.019 -0.508,-4.019 -0.789,-6.074" /><path
         id="path72"
         style="fill:#d60f67;fill-opacity:1;fill-rule:nonzero;stroke:none"
         d="m 909.809,286.34 c -0.477,-3.328 0.5,-6.656 2.707,-9.172 2.175,-2.508 5.359,-3.965 8.683,-3.965 h 110.131 c 5.7,0 10.58,4.235 11.4,9.91 l 38.68,275.164 H 948.023 L 909.809,286.34" /><path
         id="path74"
         style="fill:#d60f67;fill-opacity:1;fill-rule:nonzero;stroke:none"
         d="m 1100.79,724.555 c -2.2,2.515 -5.35,3.968 -8.7,3.968 H 981.965 c -5.715,0 -10.598,-4.238 -11.41,-9.91 L 950.387,575.074 h 133.383 l 19.73,140.313 c 0.45,3.301 -0.53,6.648 -2.71,9.168" /><path
         id="path76"
         style="fill:#d60f67;fill-opacity:1;fill-rule:nonzero;stroke:none"
         d="m 1389.52,552.188 c -0.19,-1.29 -37.4,-265.864 -37.4,-265.864 -0.46,-3.312 0.53,-6.64 2.7,-9.156 2.18,-2.504 5.39,-3.965 8.71,-3.965 h 110.1 c 5.76,0 10.61,4.235 11.42,9.922 l 38.63,275.152 H 1390.3 c -0.26,-2.027 -0.5,-4.039 -0.78,-6.089" /><path
         id="path78"
         style="fill:#d60f67;fill-opacity:1;fill-rule:nonzero;stroke:none"
         d="m 1519.63,685.598 c -16.32,33.617 -52.84,52.89 -100.31,52.89 -41.91,0 -88.13,-12.453 -148.01,-40.109 l 2.4,17.023 c 0.5,3.313 -0.54,6.614 -2.69,9.149 -2.19,2.484 -5.39,3.918 -8.71,3.918 h -102.85 c -5.74,0 -10.61,-4.184 -11.39,-9.895 l -20.16,-143.5 h 133.36 l 4.78,33.953 c 31.05,9.547 60.91,14.539 86.67,14.539 16.61,0 27.44,-3.136 33.04,-9.578 6.61,-7.601 7.52,-21.902 6.26,-38.914 H 1526 c 7.67,57.68 7.3,83.321 -6.37,110.524" /><path
         id="path80"
         style="fill:#d60f67;fill-opacity:1;fill-rule:nonzero;stroke:none"
         d="m 1087.34,286.324 c -0.48,-3.312 0.52,-6.64 2.7,-9.156 2.21,-2.508 5.35,-3.965 8.68,-3.965 h 110.15 c 5.74,0 10.59,4.235 11.37,9.922 l 38.67,275.152 h -133.36 l -38.21,-271.953" /><path
         id="path82"
         style="fill:#d60f67;fill-opacity:1;fill-rule:nonzero;stroke:none"
         d="m 1040.1,754.66 c 40.29,0 76.37,31.906 82.11,72.695 2.86,20.481 -2.48,39.708 -15.01,54.168 -12.2,14.008 -29.76,21.735 -49.46,21.735 -40.13,0 -77.357,-32.582 -83.006,-72.668 -2.843,-20.219 2.496,-39.305 15.106,-53.762 12.41,-14.277 30.25,-22.168 50.26,-22.168" /></g></g></svg>